<?xml version="1.0" encoding="utf-8"?>
<!-- Generator: Adobe Illustrator 22.1.0, SVG Export Plug-In . SVG Version: 6.00 Build 0)  -->
<svg version="1.1" id="Layer_1" xmlns="http://www.w3.org/2000/svg" xmlns:xlink="http://www.w3.org/1999/xlink" x="0px" y="0px"
	 viewBox="0 0 893.7 117" style="enable-background:new 0 0 893.7 117;" xml:space="preserve">
<style type="text/css">
	.st0{fill:#00000;}
</style>
<title>for site ge grayscale</title>
<path class="st0" d="M58.1,64.8c0.5,5.5,0.8,8.4-3.7,13.1c-4.6,4.9-16.3,13.9-28.2,20.8c-5.4,3.2-11.1,6-17,8.3
	c-3.8,1.4-7,2-8.6-0.8c-1-1.8-0.5-3.4,0-4.9c4.1-11.3,16.1-32.3,23.9-45.9l2.5-4.3C39,30.4,54.9,5,58,1c0.4-0.6,1.3-1.3,2-0.8
	c0.5,0.4,0.7,1,0.5,1.6c0,0.1-0.2,0.8-0.3,1.1C55.2,23.8,55.8,44.3,58.1,64.8z"/>
<path class="st0" d="M75.7,71.2c-5.1-2.3-7.7-3.5-9.5-9.7c-1.9-6.4-3.9-21.1-3.9-34.9c-0.1-6.3,0.4-12.6,1.3-18.8
	c0.7-4,1.8-7.1,5-7.1c2.1,0,3.2,1.2,4.2,2.4c7.7,9.2,19.9,30.1,27.8,43.7c0.8,1.4,1.6,2.8,2.5,4.3c11.9,20.8,25.9,47.2,27.9,52
	c0.3,0.7,0.5,1.7-0.3,2.2c-0.6,0.2-1.2,0.1-1.7-0.3c-0.1-0.1-0.6-0.6-0.8-0.8C112.6,89.2,94.6,79.4,75.7,71.2z"/>
<path class="st0" d="M61.3,83.2c4.5-3.2,6.9-4.9,13.2-3.4c6.5,1.6,20.2,7.1,32.2,14.1c5.5,3.1,10.8,6.6,15.7,10.6
	c3.1,2.6,5.2,5.1,3.6,7.9c-1,1.8-2.7,2.2-4.2,2.4c-11.8,2-36,2.2-51.8,2.3h-4.9c-23.9,0-53.9-1.1-59-1.8c-0.7-0.1-1.7-0.5-1.7-1.4
	c0.1-0.6,0.5-1.1,1.1-1.3c0.1,0,0.8-0.2,1.1-0.3C27.3,106.2,44.8,95.5,61.3,83.2z"/>
<path class="st0" d="M201.8,53.8c2.4,2.8,3.5,7,3.5,12.4v11.2c0.1,6.3-1,12.6-3.4,18.4h-9.3c2-5.9,3-12.1,3-18.4V66.3
	c0-3.2-0.4-5.4-1.2-6.7c-0.9-1.4-2.6-2.1-4.2-2c-1.7-0.2-3.3,0.6-4.3,2c-0.9,1.3-1.3,3.6-1.3,6.7v12.9c0,5.8-1.3,10.1-4,13
	c-2.7,2.9-6.7,4.4-12,4.4s-9.1-1.5-11.8-4.4s-4-7.2-4-12.9V66.9c0-5.7,1.3-10,3.9-12.9c2.6-2.9,6.3-4.4,11.3-4.4
	c2.6-0.1,5.2,0.5,7.5,1.7c2,1.1,3.4,2.9,4.2,5c1-2.1,2.5-3.9,4.5-5.1c2.2-1.2,4.7-1.7,7.1-1.6C195.9,49.6,199.4,51,201.8,53.8z
	 M175.1,66.9c0.1-1.9-0.1-3.8-0.6-5.6c-0.3-1.2-1-2.2-2-2.9c-1.2-0.6-2.5-0.9-3.8-0.9c-1.3-0.1-2.5,0.2-3.7,0.9
	c-0.9,0.7-1.6,1.7-1.9,2.9c-0.4,1.8-0.6,3.7-0.6,5.6v12.2c-0.1,1.9,0.1,3.8,0.6,5.6c0.3,1.1,0.9,2.2,1.9,2.9
	c1.1,0.6,2.4,0.9,3.7,0.9c1.3,0.1,2.7-0.2,3.8-0.9c1-0.7,1.7-1.7,2-2.9c0.5-1.8,0.7-3.7,0.6-5.6V66.9z"/>
<path class="st0" d="M241.9,53.9c2.7,2.9,4,7.2,4,12.9v10.5c0.1,6.3-1,12.6-3.4,18.4h-9.4c2.1-5.9,3.1-12.1,3-18.4V66.9
	c0.1-1.9-0.1-3.8-0.6-5.6c-0.3-1.1-0.9-2.2-1.9-2.9c-2.3-1.1-5-1.1-7.3,0c-0.9,0.7-1.6,1.7-1.9,2.9c-0.4,1.8-0.6,3.7-0.6,5.6v10.4
	c0,6.3,1,12.5,3,18.5h-9.4c-2.3-5.8-3.5-12.1-3.4-18.4V66.9c0-5.7,1.3-10,4-12.9s6.6-4.4,11.8-4.4C235.2,49.6,239.2,51,241.9,53.9z"
	/>
<path class="st0" d="M285.4,81.6c0,9.9-5.3,14.9-15.9,14.9c-10.6,0-15.9-5-15.9-14.9c0-8.7,4-13.7,12.1-14.8v-2.5
	c0-0.9-0.3-1.8-0.8-2.4c-0.8-1-1.8-1.8-2.8-2.6c-0.7-0.5-1.3-1.1-1.9-1.8c-0.4-0.6-0.8-1.2-1-1.9c-0.3-1-0.4-2.1-0.4-3.1v-2.2h9.8v1
	c0,0.8,0.2,1.6,0.7,2.2c0.7,0.8,1.5,1.6,2.3,2.2c1.1,0.8,2.1,1.9,2.9,3.1c0.6,1.3,1,2.7,0.9,4.1v4.4
	C282.1,68.9,285.4,73.7,285.4,81.6z M274.2,87c1-1.1,1.5-3,1.5-5.4s-0.5-4.3-1.5-5.5c-1-1.1-2.6-1.7-4.8-1.7
	c-1.7-0.2-3.4,0.5-4.6,1.7c-1,1.1-1.5,3-1.5,5.5s0.5,4.3,1.5,5.4c1.2,1.2,2.9,1.9,4.7,1.7C271.7,88.7,273.2,88.2,274.2,87L274.2,87z
	"/>
<path class="st0" d="M321.1,53.9c2.7,2.9,4,7.2,4,12.9v10.5c0.1,6.3-1,12.6-3.4,18.4h-9.3c2-5.9,3.1-12.1,3-18.4V66.9
	c0.1-1.9-0.1-3.8-0.6-5.6c-0.3-1.1-0.9-2.2-1.9-2.9c-1.1-0.6-2.4-0.9-3.7-0.9c-1.3-0.1-2.5,0.2-3.6,0.9c-1,0.7-1.6,1.7-1.9,2.9
	c-0.4,1.8-0.6,3.7-0.6,5.6v10.4c0,6.3,1,12.5,3,18.5h-9.4c-2.3-5.8-3.4-12.1-3.4-18.4V66.9c0-5.7,1.3-10,4-12.9
	c2.7-2.9,6.6-4.4,11.8-4.4C314.5,49.6,318.4,51,321.1,53.9z"/>
<path class="st0" d="M334.1,50.3h9.7v31.2c0,2.5,0.5,4.4,1.6,5.5s2.8,1.7,5.1,1.7c2.4,0,4.1-0.6,5.2-1.7c1-1.1,1.6-3,1.6-5.5
	c0-1-0.2-2-0.5-2.9c-0.4-1.1-0.9-2.2-1.4-3.2c-0.7-1.3-1.2-2.6-1.7-4c-0.4-1.3-0.6-2.6-0.5-3.9v-1h9.7c0,1.1,0.2,2.2,0.5,3.3
	c0.4,1.3,0.9,2.5,1.5,3.7c0.7,1.7,1.2,3.1,1.6,4.2c0.4,1.3,0.5,2.6,0.5,3.9c0,9.9-5.5,14.9-16.4,14.9c-11,0-16.4-5-16.4-15V50.3z"/>
<path class="st0" d="M402.2,53.9c2.7,2.9,4,7.2,4,12.9v10.5c0.1,6.3-1,12.6-3.4,18.4h-9.4c2-5.9,3.1-12.1,3-18.4V66.9
	c0.1-1.9-0.1-3.8-0.6-5.6c-0.3-1.2-0.9-2.2-1.9-2.9c-2.3-1.1-5-1.1-7.3,0c-1,0.7-1.6,1.7-1.9,2.9c-0.4,1.8-0.5,3.7-0.4,5.6v10.4
	c0,6.3,1,12.5,3,18.5H378c-2.3-5.8-3.5-12.1-3.4-18.4V66.9c0-5.7,1.3-10,4-12.9c2.7-2.9,6.6-4.4,11.8-4.4
	C395.6,49.6,399.5,51,402.2,53.9z"/>
<path class="st0" d="M454.6,71.8c2,3,3,6.5,2.9,10.1c0,4.8-1.2,8.5-3.8,11.1s-6.1,4-10.7,4c-2.6,0-5.1-0.6-7.3-1.8
	c-2.2-1.2-4-3-5.2-5.2c-1.3-2.5-1.9-5.2-1.9-8c-0.1-2.7,0.5-5.4,1.7-7.8c1.1-2.1,2.7-3.9,4.7-5.2c2-1.3,4.3-2.1,6.7-2.2v-4
	c0.1-1.1-0.2-2.2-0.8-3.1c-0.7-0.9-1.6-1.6-2.6-2.1c-1.1-0.6-2-1.5-2.6-2.5c-0.6-1-0.9-2.1-0.9-3.2v-2.1h5.1v1.3
	c0,0.8,0.2,1.6,0.6,2.2c0.6,0.7,1.4,1.4,2.2,1.8c1.2,0.7,2.2,1.7,3,2.9c0.7,1.3,1.1,2.8,1,4.3v4.8C449.9,67.5,452.7,69.3,454.6,71.8
	z M450.2,90.2c1.5-1.7,2.2-4.4,2.2-8.3s-0.8-6.8-2.2-8.4s-3.9-2.5-7.2-2.5s-5.6,0.8-7.1,2.5s-2.2,4.5-2.2,8.4s0.8,6.7,2.2,8.3
	s3.9,2.5,7.1,2.5S448.7,91.8,450.2,90.2z"/>
<path class="st0" d="M490.8,53c2.4,2.7,3.6,6.8,3.6,12.4v8.3c0,4.4-0.3,8.7-1.1,13c-0.6,3.4-1.7,6.6-3.3,9.6h-4.9
	c3-5.1,4.5-12.7,4.5-22.7v-7.9c0.1-2.5-0.2-5-0.9-7.4c-0.4-1.6-1.4-2.9-2.8-3.8c-3.5-1.5-7.4-1.5-10.8,0c-1.4,0.8-2.4,2.2-2.8,3.8
	c-0.7,2.4-1,4.9-0.9,7.4v7.9c0,4.4,0.4,8.7,1.3,13c0.6,3.3,1.7,6.6,3.2,9.6h-5.1c-1.4-3.1-2.5-6.3-3.1-9.7
	c-0.9-4.2-1.3-8.6-1.3-12.9v-8.4c0-5.5,1.2-9.6,3.7-12.3s5.9-4.1,10.4-4C485,48.9,488.4,50.3,490.8,53z"/>
<path class="st0" d="M523.3,67.1c2.3,0,4.5,0.6,6.4,1.9c1.9,1.3,3.5,3.1,4.5,5.2c1.1,2.4,1.7,5.1,1.6,7.7c0,4.8-1.2,8.5-3.7,11.1
	c-2.5,2.6-6,4-10.7,4c-2.6,0-5.1-0.6-7.3-1.8c-2.2-1.2-4-3-5.2-5.2c-1.3-2.5-2-5.2-1.9-8c-0.1-3.3,0.8-6.6,2.7-9.4
	c-2.2-1-4.2-2.5-5.6-4.5c-1.5-2-2.2-4.5-2.2-7c-0.1-2.3,0.5-4.5,1.6-6.5c1-1.8,2.5-3.3,4.4-4.2c1.9-1,3.9-1.5,6-1.4
	c2,0,3.9,0.4,5.7,1.4c3.5,1.9,5.7,5.5,5.7,9.5c0,3-1.4,5.8-3.8,7.5C522.3,67.2,523,67.1,523.3,67.1z M508.1,66.1
	c1.1,1.5,2.5,2.8,4.2,3.6c1-0.8,2.1-1.6,3.3-2.2c1.4-0.7,2.6-1.7,3.5-2.9c0.9-1.3,1.4-2.9,1.3-4.5c0-2.4-0.6-4.2-1.7-5.4
	c-1.3-1.2-3-1.8-4.8-1.7c-1.9-0.1-3.8,0.5-5.3,1.8c-1.2,1.2-1.8,3.2-1.8,5.9C506.7,62.7,507.2,64.5,508.1,66.1L508.1,66.1z
	 M528.6,90.2c1.5-1.7,2.2-4.4,2.2-8.3s-0.7-6.8-2.2-8.4s-3.9-2.5-7.2-2.5s-5.6,0.8-7.1,2.5s-2.2,4.5-2.2,8.4s0.7,6.7,2.2,8.3
	s3.9,2.5,7.1,2.5S527.1,91.8,528.6,90.2L528.6,90.2z"/>
<path class="st0" d="M566.7,68.4c2.1,1.2,3.9,3,5,5.2c1.3,2.6,1.9,5.5,1.9,8.4c0,4.9-1.3,8.7-3.9,11.3c-2.6,2.6-6.1,3.8-10.5,3.8
	c-4.3,0-7.8-1.3-10.4-3.8c-2.6-2.5-3.9-6.1-3.9-10.8V61.5c-0.1-3.3,1.1-6.4,3.5-8.7c2.5-2.2,5.9-3.4,9.2-3.2h13v4.6h-12.4
	c-3.1,0-5.3,0.6-6.5,1.8s-1.9,3.2-1.9,5.9v8.8c1.2-1.3,2.7-2.3,4.4-3C558.2,66,562.8,66.3,566.7,68.4L566.7,68.4z M566.2,90.2
	c1.5-1.7,2.2-4.4,2.2-8.3s-0.8-6.6-2.4-8.3s-4-2.5-7.2-2.5c-1.7,0-3.4,0.3-5,0.9c-1.5,0.6-2.9,1.4-4.1,2.5v7.4
	c0,3.9,0.8,6.7,2.2,8.3s3.9,2.5,7.1,2.5S564.7,91.8,566.2,90.2z"/>
<path class="st0" d="M603.5,50.6c2.1,1.1,3.8,2.8,5,4.8c1.3,2.2,1.9,4.8,1.9,7.4v19.7c0,4.6-1.3,8.2-3.8,10.7s-6,3.8-10.5,3.8
	c-2.6,0.1-5.1-0.5-7.4-1.7c-2-1-3.8-2.6-4.9-4.6c-1.2-2-1.8-4.2-1.7-6.5c-0.1-2.4,0.5-4.9,1.7-7l4.5,1c-0.8,1.9-1.2,3.9-1.2,5.9
	c0,2.9,0.7,5,2.2,6.4s3.7,2.1,6.9,2.1c3.5,0,5.9-0.8,7.3-2.4c1.4-1.6,2-4.3,2-8.1V63c0-3.6-0.8-6.1-2.2-7.6
	c-1.8-1.6-4.1-2.4-6.5-2.2c-5.6,0-8.4,2.5-8.4,7.6c0,1.7,0.3,3.4,0.8,5l-4.7,1c-0.9-1.8-1.3-3.9-1.2-5.9c0-2.2,0.6-4.3,1.8-6.1
	c1.3-1.9,3-3.4,5-4.4c2-1.1,4.3-1.6,6.6-1.6C599.1,48.8,601.4,49.4,603.5,50.6z"/>
<path class="st0" d="M642.9,69.5c0.5,1.1,1.2,2.1,1.9,3c1.1,1.5,2,3.1,2.7,4.8c0.7,1.9,1,3.9,0.9,5.9c0,2.5-0.6,5-1.9,7.2
	c-1.2,2.1-3,3.8-5.1,4.9c-4.4,2.4-9.8,2.4-14.2,0c-2.1-1.2-3.9-2.9-5-5.1c-1.2-2.4-1.9-5-1.8-7.7V49.6h4.9v32.3c0,4,0.7,6.8,2.2,8.4
	s3.7,2.4,6.9,2.4c3.1,0,5.3-0.7,6.8-2.2s2.2-3.9,2.2-7.3c0-1.5-0.2-3.1-0.8-4.5c-0.7-1.5-1.5-2.8-2.4-4.2c-0.8-1.1-1.5-2.3-2.1-3.6
	c-0.5-1.1-0.7-2.3-0.7-3.6v-0.7h4.9C642.2,67.6,642.4,68.6,642.9,69.5z"/>
<path class="st0" d="M681.6,53c2.4,2.7,3.6,6.8,3.6,12.4v8.3c0,4.4-0.3,8.7-1.1,13c-0.6,3.4-1.7,6.6-3.3,9.6h-4.9
	c3-5.1,4.5-12.7,4.5-22.7v-7.9c0.1-2.5-0.2-5-0.9-7.4c-0.4-1.6-1.4-2.9-2.8-3.8c-3.5-1.5-7.4-1.5-10.8,0c-1.4,0.8-2.4,2.2-2.8,3.8
	c-0.7,2.4-1,4.9-0.9,7.4v7.9c0,4.4,0.4,8.7,1.3,13c0.7,3.3,1.7,6.6,3.2,9.6h-5c-1.4-3.1-2.5-6.3-3.1-9.7c-0.9-4.2-1.3-8.6-1.3-12.9
	v-8.4c0-5.5,1.2-9.6,3.7-12.3s5.9-4.1,10.4-4C675.7,48.9,679.2,50.3,681.6,53z"/>
<path class="st0" d="M717.7,69.5c0.5,1.1,1.2,2.1,1.9,3c1.1,1.5,2,3.1,2.7,4.8c0.7,1.9,1,3.9,0.9,5.9c0,2.5-0.6,5-1.9,7.2
	c-1.2,2.1-3,3.8-5.1,4.9c-2.1,1.2-4.6,1.8-7,1.8c-2.5,0-5-0.6-7.2-1.8c-2.1-1.2-3.9-2.9-5-5.1c-1.2-2.4-1.9-5-1.8-7.7V49.6h4.9v32.3
	c0,4,0.7,6.8,2.1,8.4c1.4,1.6,3.7,2.4,6.9,2.4s5.3-0.7,6.8-2.2s2.2-3.9,2.2-7.3c0-1.5-0.2-3.1-0.8-4.5c-0.7-1.4-1.5-2.8-2.4-4.2
	c-0.8-1.1-1.5-2.3-2.1-3.6c-0.5-1.1-0.7-2.3-0.7-3.6v-0.7h4.9C717.1,67.6,717.3,68.6,717.7,69.5z"/>
<path class="st0" d="M777,52.8c2.2,2.6,3.3,6.4,3.3,11.3v9.6c0,4.4-0.3,8.7-1.1,13c-0.6,3.4-1.7,6.6-3.3,9.6h-4.9
	c3-5.1,4.5-12.7,4.5-22.7v-9.2c0-4.1-0.6-6.9-1.8-8.5c-1.2-1.6-3.2-2.5-6-2.5s-4.8,0.8-6,2.5s-1.8,4.5-1.8,8.5v16.1
	c0,5.5-1.2,9.6-3.6,12.4c-2.4,2.7-5.9,4.1-10.3,4.1c-4.5,0-8-1.4-10.4-4.1s-3.6-6.8-3.7-12.3V65.3c0-10.9,4.6-16.4,13.8-16.4
	c2.6-0.1,5.1,0.5,7.4,1.7c2.1,1.1,3.7,3.1,4.4,5.4c0.6-2.2,2-4.2,4-5.4c2-1.1,4.3-1.7,6.7-1.7C771.4,48.7,774.7,50.2,777,52.8z
	 M754.9,65.7c0.1-2.5-0.2-5-0.9-7.4c-0.4-1.6-1.4-2.9-2.8-3.8c-3.5-1.5-7.4-1.5-10.8,0c-1.4,0.8-2.4,2.2-2.8,3.8
	c-0.7,2.4-1,4.9-0.9,7.4v14.5c-0.1,2.5,0.2,5,0.9,7.4c0.4,1.6,1.4,2.9,2.8,3.7c3.5,1.5,7.4,1.5,10.8,0c1.4-0.8,2.4-2.2,2.8-3.7
	c0.7-2.4,1-4.9,0.9-7.4V65.7z"/>
<path class="st0" d="M790.7,60.7c0-2.1,0.6-4.2,1.9-6c1.3-1.8,3-3.3,4.9-4.3c2-1,4.3-1.6,6.5-1.6c2.2,0,4.5,0.5,6.5,1.5
	c2,0.9,3.7,2.3,4.9,4.1c1.2,1.8,1.9,3.9,1.8,6.1c0,3-0.7,5.3-2,6.9c-1.6,1.7-3.7,2.8-6,3.1c2.6,0.4,5,1.7,6.7,3.7
	c1.7,2,2.6,4.9,2.6,8.7c0,4.5-1.3,8-3.9,10.4S808.5,97,804,97c-2.6,0-5.2-0.5-7.6-1.5c-2.1-0.9-3.9-2.4-5.2-4.3
	c-1.2-1.8-1.9-4-1.8-6.2c0-2,0.5-4,1.3-5.9l4.5,0.9c-0.5,1.6-0.8,3.3-0.8,4.9c0,2.7,0.7,4.7,2.2,5.9s3.9,1.9,7.3,1.9
	s5.9-0.7,7.3-2.2s2.2-4,2.2-7.6c0-3.3-0.7-5.9-2.2-7.6c-1.5-1.7-3.9-2.6-7.2-2.6h-2.5v-4.1h2.5c2.9,0,4.9-0.6,6.2-1.8
	c1.3-1.2,2-3.2,2-6.1c0.2-2.1-0.7-4.2-2.2-5.7c-1.7-1.4-3.8-2-6-1.9c-5.5,0-8.3,2.5-8.3,7.4c0,1.2,0.2,2.3,0.5,3.4l-4.6,0.9
	C791,63.7,790.7,62.2,790.7,60.7z"/>
<path class="st0" d="M852,53c2.4,2.7,3.6,6.8,3.6,12.4v8.3c0,4.4-0.3,8.7-1.1,13c-0.6,3.4-1.7,6.6-3.3,9.6h-4.9
	c3-5.1,4.5-12.7,4.5-22.7v-7.9c0.1-2.5-0.2-5-0.9-7.4c-0.4-1.6-1.4-2.9-2.8-3.8c-3.5-1.5-7.4-1.5-10.8,0c-1.4,0.8-2.4,2.2-2.8,3.8
	c-0.7,2.4-1,4.9-0.9,7.4v7.9c0,4.4,0.4,8.7,1.3,13c0.7,3.3,1.7,6.6,3.2,9.6h-5c-1.4-3.1-2.5-6.3-3.1-9.7c-0.9-4.2-1.3-8.6-1.3-12.9
	v-8.4c0-5.5,1.2-9.6,3.7-12.3s5.9-4.1,10.4-4C846.2,48.9,849.6,50.3,852,53z"/>
<path class="st0" d="M888.2,69.5c0.5,1.1,1.2,2.1,1.9,3c1.1,1.5,2,3.1,2.7,4.8c0.7,1.9,1,3.9,0.9,5.9c0,2.5-0.6,5-1.9,7.2
	c-1.2,2.1-3,3.8-5.1,4.9c-2.1,1.2-4.6,1.8-7,1.8c-2.5,0-5-0.6-7.2-1.8c-2.1-1.2-3.9-2.9-5-5.1c-1.2-2.4-1.9-5-1.8-7.7V49.6h4.9v32.3
	c0,4,0.7,6.8,2.1,8.4c1.4,1.6,3.7,2.4,6.9,2.4c3.1,0,5.3-0.7,6.8-2.2s2.2-3.9,2.2-7.3c0-1.5-0.2-3.1-0.8-4.5
	c-0.7-1.4-1.5-2.8-2.4-4.2c-0.8-1.1-1.5-2.3-2.1-3.6c-0.5-1.1-0.7-2.3-0.7-3.6v-0.7h4.9C887.5,67.6,887.7,68.6,888.2,69.5z"/>
</svg>
